<?xml version="1.0" encoding="UTF-8"?>
<svg version="1.1" xmlns="http://www.w3.org/2000/svg" width="1024" height="1024">
<path d="M0 0 C1.74093513 -0.00302805 3.48186894 -0.00692078 5.22280043 -0.01159257 C9.96145667 -0.02179707 14.70003661 -0.0197102 19.43869889 -0.01541197 C24.56698983 -0.01293093 29.69526305 -0.02197591 34.82354736 -0.02944946 C44.85284492 -0.04216021 54.88211565 -0.0439947 64.91141991 -0.0416492 C73.0682963 -0.03986187 81.22516459 -0.04162455 89.38204002 -0.04587364 C90.54558889 -0.04646883 91.70913776 -0.04706402 92.90794569 -0.04767724 C95.27214625 -0.04888907 97.63634681 -0.0501032 100.00054737 -0.05131962 C122.14238697 -0.06218113 144.28421131 -0.06003921 166.42605176 -0.05393478 C186.65244586 -0.04876646 206.87879179 -0.06002132 227.10517637 -0.07903299 C247.90817748 -0.09843573 268.71115584 -0.10666315 289.51416606 -0.10290974 C301.17963445 -0.10100145 312.84506186 -0.10344899 324.51052284 -0.11762428 C334.441159 -0.1295701 344.37172893 -0.13090714 354.30236606 -0.11883412 C359.36196488 -0.11296797 364.42144274 -0.11178292 369.48103333 -0.12383652 C374.12541084 -0.13477173 378.76956751 -0.13150233 383.41393503 -0.11757483 C385.08134764 -0.11494876 386.74877799 -0.11722751 388.41617308 -0.1253107 C420.01422928 -0.26768644 450.26981718 8.32703393 475.18302917 28.26069641 C475.99272156 28.89539856 475.99272156 28.89539856 476.81877136 29.54292297 C483.25782013 34.6073865 489.02310588 39.88807225 494.18302917 46.26069641 C495.20783386 47.42085266 495.20783386 47.42085266 496.25334167 48.60444641 C513.88177952 68.99692504 527.27198409 98.41401726 527.31725025 125.67280102 C527.3217081 126.92494339 527.32616594 128.17708577 527.33075887 129.46717185 C527.33066959 130.84375585 527.33047978 132.22033985 527.3302002 133.59692383 C527.3335027 135.06951567 527.33722908 136.54210662 527.34134167 138.01469642 C527.35132629 142.05343508 527.35507276 146.09215888 527.35773098 150.13090813 C527.3616447 154.49045127 527.37122243 158.84998276 527.37994385 163.20951843 C527.39968053 173.73552416 527.40977197 184.26153082 527.41867164 194.78755042 C527.42306005 199.75150328 527.42842551 204.71545509 527.43366051 209.67940712 C527.45067173 226.19384763 527.46516339 242.70828748 527.47240925 259.2227354 C527.47431897 263.50565275 527.47623933 267.7885701 527.47819519 272.07148743 C527.47867893 273.13591341 527.47916267 274.20033939 527.47966107 275.29702071 C527.48795198 292.519624 527.51327348 309.74215762 527.54577587 326.96473052 C527.57891524 344.67008439 527.5968643 362.37540293 527.60005349 380.08078796 C527.60221247 390.0121412 527.61087091 399.94339291 527.63651466 409.87471581 C527.65831602 418.33724973 527.66622608 426.79965747 527.65654788 435.26221629 C527.65203004 439.57258351 527.65374089 443.88269089 527.67330933 448.19302177 C527.81757844 481.86164809 527.81757844 481.86164809 523.18302917 498.26069641 C522.95994666 499.05696642 522.73686414 499.85323643 522.50702155 500.67363584 C517.33634686 518.90838131 508.60944391 535.91068806 496.18302917 550.26069641 C495.75022644 550.7689093 495.31742371 551.27712219 494.87150574 551.80073547 C478.65379239 570.74311943 457.47765394 584.88505044 433.74552917 592.57319641 C433.04403748 592.80353577 432.34254578 593.03387512 431.61979675 593.27119446 C417.54917105 597.55957999 403.55908084 598.70533447 388.94882202 598.64837646 C387.17473637 598.6525603 385.4006534 598.65804352 383.62657529 598.66469628 C378.80086534 598.67903198 373.97532789 598.67494372 369.14960897 598.66752946 C363.92587497 598.6627704 358.70217683 598.67533171 353.47845459 598.68554688 C343.26379322 598.70268693 333.0491935 598.70358485 322.83452149 598.69833397 C314.52654918 598.69428202 306.218595 598.69574797 297.91062355 598.70108223 C296.13263223 598.70220486 296.13263223 598.70220486 294.31872189 598.70335018 C291.91023259 598.70488175 289.5017433 598.7064201 287.09325401 598.70796514 C264.53933709 598.72167289 241.98545491 598.71626468 219.4315388 598.70477993 C198.83080997 598.69484975 178.23017098 598.70778762 157.62945601 598.73171412 C136.43881937 598.75613896 115.24822452 598.76570465 94.05757409 598.7590614 C82.17577871 598.75557665 70.29405238 598.75775193 58.41226768 598.77531242 C48.29757921 598.79007678 38.18300842 598.79061469 28.06832214 598.77324151 C22.91539956 598.76476389 17.76268685 598.76250223 12.60977554 598.77789307 C7.87897303 598.79184734 3.14855805 598.78684088 -1.58222266 598.76765383 C-3.27990461 598.76392614 -4.97761843 598.76672069 -6.67527173 598.77726548 C-22.22213408 598.86685121 -37.95177489 596.8245195 -52.50447083 591.07319641 C-53.65507996 590.63209534 -53.65507996 590.63209534 -54.82893372 590.18208313 C-72.48031615 583.19979555 -87.02032776 573.28199094 -100.81697083 560.26069641 C-101.56591614 559.57620422 -102.31486145 558.89171204 -103.08650208 558.18647766 C-124.76991697 537.64229648 -140.72813681 504.03509759 -141.94462132 474.12177384 C-141.94586782 473.04916585 -141.94711432 471.97655787 -141.94839859 470.87144661 C-141.95416031 469.00090809 -141.95416031 469.00090809 -141.96003842 467.09258091 C-141.95925833 465.72179034 -141.95837957 464.35099981 -141.95741272 462.98020935 C-141.95999869 461.51372922 -141.9630125 460.04724979 -141.96641612 458.58077133 C-141.97446245 454.5590418 -141.97627437 450.53733015 -141.97701359 446.51559353 C-141.97886834 442.17451438 -141.98641791 437.83344442 -141.9931488 433.49237061 C-142.00671705 424.00227818 -142.01275484 414.51218999 -142.01715946 405.02208948 C-142.01992512 399.0912368 -142.02416313 393.16038574 -142.02866364 387.22953415 C-142.04085562 370.79486506 -142.05115424 354.36019727 -142.05453873 337.92552376 C-142.05475829 336.87410894 -142.05497786 335.82269413 -142.05520408 334.73941826 C-142.05542236 333.68554134 -142.05564063 332.63166441 -142.05586553 331.54585183 C-142.05630899 329.41043544 -142.05675555 327.27501905 -142.0572052 325.13960266 C-142.05742663 324.08037098 -142.05764806 323.02113929 -142.0578762 321.92980967 C-142.06182062 304.78279168 -142.07926409 287.63581628 -142.10256472 270.48881473 C-142.12631772 252.86596595 -142.13874242 235.24313851 -142.13990664 217.62027347 C-142.14082133 207.73319038 -142.14652111 197.84616275 -142.16472626 187.959095 C-142.18018078 179.53638029 -142.18521638 171.11373818 -142.17698815 162.69101198 C-142.17310017 158.39928785 -142.17391978 154.10770967 -142.1880455 149.8160038 C-142.20089688 145.87514172 -142.19948992 141.93453357 -142.18745479 137.99367128 C-142.185517 136.57972222 -142.18848567 135.16575446 -142.19729915 133.75183155 C-142.27862251 119.80480002 -140.3075532 106.10550396 -135.75447083 92.88569641 C-135.45629456 92.01340393 -135.15811829 91.14111145 -134.85090637 90.24238586 C-124.25424491 60.50354142 -104.28938363 38.17267266 -78.81697083 20.26069641 C-77.99583801 19.68061829 -77.1747052 19.10054016 -76.32868958 18.50288391 C-53.720331 3.80544299 -26.35582926 -0.06590893 0 0 Z " fill="#1D1D1E" transform="translate(320.8169708251953,196.7393035888672)"/>
<path d="M0 0 C7.9550678 6.79091154 13.73669909 15.95656631 14.80078125 26.5625 C15.43591436 49.02615537 -1.57734694 64.06713333 -15.7578125 79.29296875 C-18.47303448 82.22588346 -21.11562746 85.20845023 -23.73046875 88.23046875 C-25.77383431 90.5730915 -27.85430859 92.88023422 -29.9375 95.1875 C-34.73657792 100.51084693 -39.4782795 105.87613339 -44.1171875 111.33984375 C-49.65807543 117.85675643 -55.29046477 124.24425985 -61.13623047 130.48950195 C-65.10592874 134.75826916 -68.77688108 139.227052 -72.42578125 143.7734375 C-74.17846825 145.87666189 -75.97057474 147.78808933 -77.9375 149.6875 C-80.70239079 152.35791844 -83.10118565 155.18345992 -85.5 158.1875 C-90.44068188 164.33157266 -95.81609661 170.02083831 -101.21875 175.7578125 C-105.17593423 179.96119141 -108.96799755 184.28426864 -112.70800781 188.68115234 C-119.00680905 196.08299931 -125.38210237 203.37920471 -131.98046875 210.515625 C-134.60280261 213.36725673 -137.15738319 216.26880071 -139.6953125 219.1953125 C-141.75250399 221.54770635 -143.84346915 223.86784966 -145.9375 226.1875 C-149.20454335 229.80773723 -152.43270776 233.45733565 -155.6328125 237.13671875 C-157.66708141 239.44838797 -159.7397231 241.7228143 -161.8125 244 C-164.88496773 247.39833552 -167.82192622 250.86340523 -170.6875 254.4375 C-175.33943284 260.1912064 -180.35597392 265.55611779 -185.4140625 270.94921875 C-189.70809015 275.53066281 -193.91823536 280.16181382 -197.6875 285.1875 C-208.13050317 297.66485444 -225.38070469 304.04044759 -241.1328125 305.5390625 C-250.14956538 305.89084547 -257.44054839 304.37945044 -265.4375 300.1875 C-266.12565796 299.83514282 -266.81381592 299.48278564 -267.52282715 299.11975098 C-278.22711998 292.9994565 -286.38614958 283.75635812 -294.984375 275.06640625 C-296.76711778 273.27873158 -298.55068097 271.49187472 -300.33502197 269.70579529 C-304.05934829 265.9738577 -307.77744477 262.23583824 -311.48974609 258.49194336 C-316.23397416 253.70738913 -320.98962263 248.93436301 -325.7492485 244.16513157 C-330.31031518 239.59406422 -334.86644549 235.01809051 -339.421875 230.44140625 C-340.2834597 229.5764258 -341.1450444 228.71144535 -342.03273773 227.82025337 C-344.48512391 225.35620873 -346.93403508 222.88876484 -349.38183594 220.42016602 C-350.09679733 219.70251572 -350.81175873 218.98486542 -351.54838562 218.24546814 C-355.46418302 214.28817826 -359.204045 210.24194377 -362.79883194 205.98986721 C-364.56028559 204.05244841 -366.43902384 202.37702775 -368.4375 200.6875 C-372.54834321 197.18655068 -376.01334113 193.35368878 -379.4375 189.1875 C-380.37142578 188.06794922 -380.37142578 188.06794922 -381.32421875 186.92578125 C-389.2799167 177.10207875 -391.48255791 167.81650965 -390.4375 155.1875 C-388.0581352 145.47969163 -381.75561836 136.71733524 -373.4375 131.1875 C-363.86107003 125.70492151 -354.10531506 124.46752645 -343.3203125 126.88671875 C-332.07742982 130.57724949 -324.33488823 138.99876665 -316.18359375 147.2109375 C-315.11357139 148.28215529 -314.04317543 149.35300002 -312.97242737 150.42349243 C-310.73964983 152.65782539 -308.51024301 154.89544786 -306.28344727 157.13574219 C-303.44888091 159.98728626 -300.60778826 162.8322151 -297.76434231 165.67490196 C-295.55654427 167.88297378 -293.351376 170.09365648 -291.14705086 172.30519485 C-290.10119061 173.35420596 -289.05475123 174.40264003 -288.00768852 175.4504509 C-282.81764684 180.64826662 -277.72189189 185.88095043 -272.93797302 191.459198 C-269.40892637 195.5240884 -265.53485478 199.27608098 -261.72973633 203.08056641 C-260.23683818 204.57568136 -258.75216608 206.07866956 -257.26757812 207.58203125 C-256.31038468 208.54215427 -255.35271944 209.50180722 -254.39453125 210.4609375 C-253.53835205 211.32122559 -252.68217285 212.18151367 -251.80004883 213.06787109 C-248.82227038 215.73947102 -246.58231875 216.95333253 -242.6875 217.75 C-231.96187681 215.89364214 -222.98625181 201.00888289 -216.1953125 193.19140625 C-214.23746415 190.95945913 -212.24500098 188.76129141 -210.25 186.5625 C-206.65298959 182.58205193 -203.15868804 178.52696869 -199.6875 174.4375 C-194.9183643 168.82765621 -189.98411326 163.39895115 -184.95117188 158.02539062 C-181.59870737 154.4453649 -178.31470813 150.82248367 -175.109375 147.109375 C-173.07991927 144.77644926 -171.009853 142.48238755 -168.9375 140.1875 C-165.67045665 136.56726277 -162.44229224 132.91766435 -159.2421875 129.23828125 C-157.20791859 126.92661203 -155.1352769 124.6521857 -153.0625 122.375 C-149.99003227 118.97666448 -147.05307378 115.51159477 -144.1875 111.9375 C-139.53091188 106.17803574 -134.50915823 100.80801301 -129.4453125 95.41015625 C-126.5952443 92.36955669 -123.83261189 89.26401576 -121.109375 86.109375 C-119.07991927 83.77644926 -117.009853 81.48238755 -114.9375 79.1875 C-112.24766569 76.20687279 -109.57439636 73.21504767 -106.9375 70.1875 C-104.30060364 67.15995233 -101.62733431 64.16812721 -98.9375 61.1875 C-94.13842208 55.86415307 -89.3967205 50.49886661 -84.7578125 45.03515625 C-79.16441681 38.45588758 -73.48250399 31.99329818 -67.59814453 25.67236328 C-64.89977209 22.77364764 -62.23001319 19.85797269 -59.625 16.875 C-59.08875 16.26140625 -58.5525 15.6478125 -58 15.015625 C-56.9185503 13.75032885 -55.85718771 12.46768957 -54.8125 11.171875 C-40.391654 -6.32007709 -20.15240026 -10.62581105 0 0 Z " fill="#F9F9F9" transform="translate(703.4375,341.8125)"/>
<path d="M0 0 C5.39190397 4.4978935 10.39391684 9.26126542 15.33984375 14.2421875 C16.10680069 15.01055939 16.87375763 15.77893127 17.66395569 16.57058716 C20.0908474 19.00303509 22.51422127 21.43895322 24.9375 23.875 C26.59156486 25.53408552 28.24585945 27.19294202 29.90039062 28.8515625 C33.93625433 32.89839709 37.96924277 36.94807953 42 41 C41.34 41.66 40.68 42.32 40 43 C39.30487305 42.23196045 38.60974609 41.4639209 37.89355469 40.67260742 C32.29987538 34.53170456 26.60418913 28.52272597 20.703125 22.67578125 C20.09206909 22.07023407 19.48101318 21.46468689 18.85144043 20.84078979 C16.33946615 18.35639924 13.82348897 15.87613348 11.30371094 13.3996582 C9.43256855 11.55847486 7.56750481 9.71130824 5.703125 7.86328125 C5.12830383 7.30191971 4.55348267 6.74055817 3.96124268 6.16218567 C2.6025324 4.81227248 1.29561446 3.4105823 0 2 C0 1.34 0 0.68 0 0 Z " fill="#060606" transform="translate(388,489)"/>
<path d="M0 0 C2.86697492 1.28519565 4.97607712 2.57129254 7 5 C7 5.66 7 6.32 7 7 C7.54140625 7.21398437 8.0828125 7.42796875 8.640625 7.6484375 C11.8392797 9.48077943 14.20964484 11.99796606 16.75 14.625 C17.25660156 15.140625 17.76320313 15.65625 18.28515625 16.1875 C19.52803902 17.45383339 20.76465276 18.7263144 22 20 C21.01 20.33 20.02 20.66 19 21 C15.82530062 17.88307091 12.66164608 14.75516454 9.5 11.625 C8.59378906 10.73554687 7.68757813 9.84609375 6.75390625 8.9296875 C5.46806641 7.65351562 5.46806641 7.65351562 4.15625 6.3515625 C3.36025391 5.56604004 2.56425781 4.78051758 1.74414062 3.97119141 C0 2 0 2 0 0 Z " fill="#2A2929" transform="translate(324,532)"/>
<path d="M0 0 C0.99 0.33 1.98 0.66 3 1 C2.01 1.33 1.02 1.66 0 2 C-0.33 2.99 -0.66 3.98 -1 5 C-2.6396721 6.36639342 -4.31110128 7.6949419 -6 9 C-6.845625 9.86625 -7.69125 10.7325 -8.5625 11.625 C-10.74551645 13.75204167 -12.29604281 14.75377872 -15 16 C-10.74015016 9.71880965 -5.81328353 4.85732135 0 0 Z " fill="#151314" transform="translate(226,229)"/>
<path d="M0 0 C6.87904083 3.05735148 13.60646651 9.21293302 17 16 C14.08462499 14.68285542 12.0152987 13.26341874 9.765625 10.99609375 C9.19199219 10.42052734 8.61835937 9.84496094 8.02734375 9.25195312 C7.44082031 8.65318359 6.85429688 8.05441406 6.25 7.4375 C5.64800781 6.83486328 5.04601562 6.23222656 4.42578125 5.61132812 C0 1.14038584 0 1.14038584 0 0 Z " fill="#0D0D0D" transform="translate(799,229)"/>
<path d="M0 0 C2.06109082 2.47330898 3.54121288 4.99412301 4.9375 7.875 C6.68966826 11.48757858 8.6989124 14.71273201 11 18 C10.01 18 9.02 18 8 18 C6.65590238 15.75583701 5.32470104 13.50557204 4 11.25 C3.6184375 10.61578125 3.236875 9.9815625 2.84375 9.328125 C0.82084348 5.86028524 0 4.10651746 0 0 Z " fill="#0C0B0C" transform="translate(313,513)"/>
<path d="M0 0 C0.66 0.33 1.32 0.66 2 1 C-2.29 5.62 -6.58 10.24 -11 15 C-11.66 14.67 -12.32 14.34 -13 14 C-8.71 9.38 -4.42 4.76 0 0 Z " fill="#090808" transform="translate(598,522)"/>
<path d="M0 0 C0.66 0.33 1.32 0.66 2 1 C-2.29 5.62 -6.58 10.24 -11 15 C-11.66 14.67 -12.32 14.34 -13 14 C-8.71 9.38 -4.42 4.76 0 0 Z " fill="#070707" transform="translate(529,600)"/>
<path d="M0 0 C1.60597325 0.45196245 3.20972508 0.91182327 4.8125 1.375 C6.15248047 1.75785156 6.15248047 1.75785156 7.51953125 2.1484375 C10 3 10 3 13 5 C8.94568308 6.15837626 6.78187881 5.83691257 3 4 C3 3.34 3 2.68 3 2 C2.01 2.33 1.02 2.66 0 3 C0 2.01 0 1.02 0 0 Z " fill="#252324" transform="translate(753,203)"/>
<path d="M0 0 C0.66 0.66 1.32 1.32 2 2 C0.20909242 3.1470194 -1.58274997 4.29257935 -3.375 5.4375 C-4.87160156 6.39462891 -4.87160156 6.39462891 -6.3984375 7.37109375 C-9 9 -9 9 -11 10 C-9.54144353 6.31353859 -7.69770955 4.83856029 -4.375 2.75 C-3.55773437 2.22921875 -2.74046875 1.7084375 -1.8984375 1.171875 C-1.27195313 0.78515625 -0.64546875 0.3984375 0 0 Z " fill="#0E0D0E" transform="translate(244,216)"/>
<path d="M0 0 C4.2742558 1.5830577 6.26531794 4.50568404 9 8 C8.67 8.66 8.34 9.32 8 10 C6.66070495 8.71451591 5.32871357 7.42141845 4 6.125 C2.88625 5.04605469 2.88625 5.04605469 1.75 3.9453125 C0 2 0 2 0 0 Z " fill="#161315" transform="translate(436,538)"/>
<path d="M0 0 C2 3 2 3 2 6 C2.66 6 3.32 6 4 6 C3.67 7.98 3.34 9.96 3 12 C0.97649676 8.96474514 0.67875982 7.80573798 0.375 4.3125 C0.30023438 3.50425781 0.22546875 2.69601562 0.1484375 1.86328125 C0.09945312 1.24839844 0.05046875 0.63351562 0 0 Z " fill="#2E2B2C" transform="translate(184,692)"/>
<path d="M0 0 C3.7952131 1.49097658 5.61042731 3.75700849 8 7 C5 7 5 7 2.3125 4.625 C0 2 0 2 0 0 Z " fill="#181618" transform="translate(381,482)"/>
<path d="M0 0 C2.12046792 3.53411321 2.53199289 6.94393835 3 11 C2.01 11 1.02 11 0 11 C-1.125 3.375 -1.125 3.375 0 0 Z " fill="#333232" transform="translate(843,296)"/>
<path d="M0 0 C2.97 1.65 5.94 3.3 9 5 C8.67 5.99 8.34 6.98 8 8 C6.66102417 7.04956626 5.32894573 6.08940853 4 5.125 C3.2575 4.59132812 2.515 4.05765625 1.75 3.5078125 C1.1725 3.01023438 0.595 2.51265625 0 2 C0 1.34 0 0.68 0 0 Z " fill="#121011" transform="translate(782,216)"/>
<path d="M0 0 C0 0.66 0 1.32 0 2 C-2.66666667 2 -5.33333333 2 -8 2 C-8 1.34 -8 0.68 -8 0 C-4.94736336 -0.98120464 -3.05263664 -0.98120464 0 0 Z " fill="#2A2A2A" transform="translate(286,201)"/>
</svg>
