<?xml version="1.0" encoding="UTF-8"?>
<svg version="1.1" xmlns="http://www.w3.org/2000/svg" width="1024" height="1024">
<path d="M0 0 C337.92 0 675.84 0 1024 0 C1024 337.92 1024 675.84 1024 1024 C686.08 1024 348.16 1024 0 1024 C0 686.08 0 348.16 0 0 Z " fill="#121313" transform="translate(0,0)"/>
<path d="M0 0 C6.74809769 4.80474094 10.40952397 11.73065941 13.25 19.375 C15.58147419 34.96574236 10.11562763 45.94473267 1.05615234 58.27050781 C-0.98037616 60.96945733 -3.0632096 63.63090631 -5.14697266 66.29345703 C-7.89442232 69.86104093 -10.50436625 73.5263205 -13.125 77.1875 C-20.50080013 87.44799369 -28.00985556 97.60854974 -35.52050781 107.77050781 C-41.91158472 116.42016518 -48.27908699 125.08420785 -54.5625 133.8125 C-58.75705527 139.63861665 -63.00288031 145.41827757 -67.328125 151.1484375 C-72.25006164 157.6844675 -77.0710723 164.29656613 -81.91943359 170.88720703 C-84.86085589 174.88468545 -87.80554693 178.87975377 -90.75 182.875 C-91.91668333 184.45832105 -93.08334998 186.0416544 -94.25 187.625 C-101.25 197.125 -101.25 197.125 -103.00024414 199.50024414 C-104.16620806 201.08268185 -105.33206104 202.66520131 -106.49780273 204.24780273 C-109.42431443 208.22051887 -112.35277534 212.19176994 -115.28515625 216.16015625 C-121.57208398 224.67279893 -127.81112895 233.21627653 -133.98974609 241.80786133 C-138.0668866 247.4632297 -142.23494356 253.04493868 -146.43530273 258.60913086 C-150.09997019 263.4756876 -153.6576713 268.4099717 -157.18139648 273.37915039 C-160.44643531 277.97475293 -163.81204324 282.48766883 -167.20703125 286.98828125 C-174.9202984 297.23398231 -182.5073722 307.57633562 -189.92822266 318.03564453 C-194.00393077 323.7646904 -198.18795178 329.41267827 -202.3671875 335.06640625 C-206.3631625 340.4778022 -210.32053865 345.91514844 -214.25 351.375 C-221.5899468 361.56862711 -229.05454712 371.6690177 -236.52050781 381.77050781 C-242.80501766 390.27593776 -249.07017101 398.79310407 -255.25 407.375 C-263.48779911 418.81421866 -271.82212035 430.18425457 -280.3125 441.4375 C-284.48861825 446.98511095 -288.54614713 452.61444209 -292.60180664 458.25024414 C-296.61416102 463.81957969 -300.66996883 469.35509111 -304.75 474.875 C-309.28757864 481.01510883 -313.78979216 487.1784582 -318.25 493.375 C-322.71020953 499.57154414 -327.21259635 505.73476023 -331.75 511.875 C-336.30372359 518.03910242 -340.82862364 524.22238679 -345.3125 530.4375 C-345.84198242 531.17033203 -346.37146484 531.90316406 -346.91699219 532.65820312 C-349.67350587 536.4780155 -352.41430101 540.30814929 -355.13671875 544.15234375 C-366.8349198 560.6285642 -377.57335539 573.41295309 -397.75 579.375 C-398.35457031 579.56707031 -398.95914062 579.75914062 -399.58203125 579.95703125 C-412.30034164 582.40902983 -424.57082689 580.025897 -435.390625 573.0703125 C-443.57652625 567.18839008 -448.82711444 559.25938186 -454.48046875 551.0703125 C-457.78786453 546.28774019 -461.22346268 541.60735793 -464.6875 536.9375 C-470.90331404 528.54047392 -477.03758231 520.08776571 -483.14111328 511.60888672 C-485.84012118 507.86140231 -488.54531494 504.11838799 -491.25 500.375 C-494.49131453 495.88889621 -497.73141954 491.40195169 -500.96484375 486.91015625 C-508.23779349 476.81233148 -515.58836425 466.77446179 -522.98388672 456.76611328 C-526.49312623 452.01500853 -529.99461276 447.25818709 -533.49755859 442.50244141 C-536.42420749 438.52968511 -539.35270774 434.55832154 -542.28515625 430.58984375 C-548.52471072 422.14159743 -554.7206422 413.66493416 -560.85791016 405.14208984 C-567.68296045 395.67535089 -574.63058439 386.29892372 -581.56884766 376.91503906 C-587.74841601 368.55551599 -593.91390596 360.19117974 -599.92944336 351.71264648 C-604.00107975 345.98930077 -608.18055083 340.34664542 -612.35620117 334.69897461 C-616.46282188 329.13863356 -620.52524567 323.54836732 -624.5625 317.9375 C-629.54454042 311.02014564 -634.58753787 304.15942061 -639.75 297.375 C-640.14783691 296.85099609 -640.54567383 296.32699219 -640.95556641 295.78710938 C-645.35242074 290.00240676 -649.7975045 284.28070341 -654.4375 278.6875 C-666.4302948 264.09309363 -675.59986083 248.96789219 -673.75 229.375 C-672.06082097 218.41816303 -666.5607486 208.85250904 -657.921875 201.87109375 C-649.47725999 196.05402981 -640.68547333 192.98373181 -630.4375 193.0625 C-629.69056885 193.06668945 -628.9436377 193.07087891 -628.17407227 193.07519531 C-622.29442901 193.19501894 -617.19471379 194.06876764 -611.75 196.375 C-611.08097656 196.63023437 -610.41195312 196.88546875 -609.72265625 197.1484375 C-604.46428816 199.4183865 -600.58034007 202.9653726 -596.4375 206.86328125 C-594.32731298 208.83544731 -592.18986364 210.72511306 -590 212.60546875 C-584.54185607 217.35894377 -579.53237571 222.54514348 -574.4609375 227.703125 C-573.71070313 228.46109375 -572.96046875 229.2190625 -572.1875 230 C-571.52621094 230.67289063 -570.86492187 231.34578125 -570.18359375 232.0390625 C-568.16588736 233.97580154 -566.1133155 235.80438677 -563.99609375 237.62890625 C-559.58971585 241.45858134 -555.47789948 245.53738279 -551.375 249.6875 C-550.60623535 250.46005127 -549.8374707 251.23260254 -549.04541016 252.02856445 C-545.7914017 255.29876036 -542.54343734 258.5749349 -539.29492188 261.85058594 C-536.90704648 264.25665285 -534.51609207 266.65963038 -532.125 269.0625 C-531.40393066 269.79186768 -530.68286133 270.52123535 -529.93994141 271.27270508 C-525.96595558 275.26559708 -521.88779655 279.051343 -517.62109375 282.72875977 C-514.81196176 285.20031209 -512.18542702 287.83374315 -509.5625 290.5 C-509.0156958 291.05059082 -508.4688916 291.60118164 -507.90551758 292.16845703 C-505.60725636 294.4827946 -503.31512484 296.8031665 -501.02246094 299.12304688 C-495.3505155 304.85625835 -489.72004663 310.54239741 -483.57421875 315.7734375 C-479.41685728 319.42336941 -475.62169836 323.46674503 -471.75 327.4140625 C-468.6021257 330.59882595 -465.4402019 333.68851419 -462.03125 336.59375 C-455.52977401 342.19365413 -449.62133906 348.44948678 -443.59521484 354.55029297 C-433.19420983 365.80165272 -433.19420983 365.80165272 -420.75 374.375 C-420.10377686 373.72655624 -419.45755371 373.07811249 -418.79174805 372.41001892 C-412.6748653 366.27302545 -406.55552451 360.13849566 -400.43347168 354.00665951 C-397.28682529 350.8548142 -394.1411077 347.70205383 -390.99755859 344.54711914 C-387.95882145 341.49744614 -384.91758496 338.45028563 -381.87466431 335.40478706 C-380.71929202 334.24757969 -379.56479407 333.08949862 -378.41122437 331.93049431 C-372.95162977 326.44622485 -367.49070046 321.03148468 -361.60354614 316.00047302 C-358.10296175 312.93062471 -354.84485199 309.612136 -351.55859375 306.31640625 C-350.80965347 305.5684227 -350.0607132 304.82043915 -349.28907776 304.04978943 C-347.71728775 302.47867536 -346.14674151 300.90631608 -344.57739258 299.33276367 C-342.19398696 296.94400154 -339.80528932 294.56062554 -337.41601562 292.17773438 C-335.87988763 290.6409455 -334.34406991 289.1038464 -332.80859375 287.56640625 C-331.75205849 286.51290733 -331.75205849 286.51290733 -330.67417908 285.43812561 C-326.69942983 281.44479764 -322.89821248 277.35297187 -319.22377014 273.0811615 C-317.48605504 271.0694349 -315.73833999 269.14241332 -313.75 267.375 C-313.09 267.375 -312.43 267.375 -311.75 267.375 C-311.42 266.385 -311.09 265.395 -310.75 264.375 C-310.09 264.375 -309.43 264.375 -308.75 264.375 C-308.75 263.715 -308.75 263.055 -308.75 262.375 C-307.13161281 260.66141357 -305.45328319 259.0042274 -303.75 257.375 C-302.6874491 256.27088232 -301.62494885 255.16671588 -300.5625 254.0625 C-297.75 251.375 -297.75 251.375 -295.75 251.375 C-295.52570313 250.82457031 -295.30140625 250.27414062 -295.0703125 249.70703125 C-293.33906024 246.64916852 -291.12762275 244.52678174 -288.625 242.0625 C-287.71492188 241.15886719 -286.80484375 240.25523437 -285.8671875 239.32421875 C-283.63578144 237.1730027 -281.33115123 235.13221031 -278.98208618 233.11048889 C-275.14601987 229.76263322 -271.50742777 226.26826045 -267.91943359 222.65795898 C-267.28120855 222.0198828 -266.64298351 221.38180662 -265.98541832 220.7243948 C-263.87070683 218.60899488 -261.75958068 216.49005434 -259.6484375 214.37109375 C-258.12353464 212.84426956 -256.59840235 211.31767449 -255.07305908 209.79129028 C-251.79997335 206.5150536 -248.52844538 203.23727219 -245.25811768 199.95828247 C-240.08287942 194.76947755 -234.90378956 189.58452849 -229.72412109 184.40014648 C-218.72978125 173.39472471 -207.73967255 162.3850821 -196.75 151.375 C-184.88427797 139.48724147 -173.01782914 127.600214 -161.14648628 115.71806812 C-156.00159934 110.5682099 -150.85915819 105.4159257 -145.71859741 100.26174927 C-142.51635662 97.05202982 -139.31202804 93.84440085 -136.10713959 90.63732529 C-134.62605049 89.15437007 -133.14582314 87.67055359 -131.66654205 86.18579483 C-129.64021305 84.15220154 -127.61076704 82.12176812 -125.58056641 80.09204102 C-124.71322404 79.21930621 -124.71322404 79.21930621 -123.8283596 78.32894039 C-120.17928819 74.6889149 -116.39518708 71.25337376 -112.49075043 67.88859081 C-110.39747394 66.06847691 -108.41118176 64.1631337 -106.44873047 62.203125 C-105.70791229 61.46545898 -104.96709412 60.72779297 -104.2038269 59.96777344 C-103.4327359 59.1946582 -102.6616449 58.42154297 -101.8671875 57.625 C-101.04928741 56.80805664 -100.23138733 55.99111328 -99.38870239 55.14941406 C-97.67148064 53.43286873 -95.95550468 51.7150763 -94.24072266 49.99609375 C-91.62905015 47.37905846 -89.01207417 44.76741226 -86.39453125 42.15625 C-84.71842924 40.47948724 -83.04263742 38.80241434 -81.3671875 37.125 C-80.59204803 36.35188477 -79.81690857 35.57876953 -79.01828003 34.78222656 C-75.15964853 30.90703578 -71.44523116 26.98470641 -67.9499054 22.77716064 C-66.45975164 21.03582758 -64.83494452 19.57481979 -63.0625 18.125 C-60.12692079 15.6479303 -57.42941312 13.04223386 -54.77392578 10.26660156 C-39.98799775 -5.10250618 -19.3804646 -11.62827876 0 0 Z " fill="#FEFEFE" transform="translate(865.75,221.625)"/>
<path d="M0 0 C0.66 0.99 1.32 1.98 2 3 C1.01 3.99 0.02 4.98 -1 6 C-1.99 5.67 -2.98 5.34 -4 5 C-2.68 3.35 -1.36 1.7 0 0 Z " fill="#0D0D0D" transform="translate(858,291)"/>
</svg>
